<svg width="124" height="40" viewBox="0 0 124 40" fill="none" xmlns="http://www.w3.org/2000/svg">
<path d="M15.3419 3.91457C15.9388 3.91872 16.5353 3.92287 17.1047 3.92287H22.8985C23.4679 3.92287 24.0644 3.91872 24.6613 3.91457C26.2681 3.90339 27.8773 3.89219 28.9664 3.96194C32.9313 4.21584 35.6657 6.61819 36.0172 10.7002C36.1006 12.1671 36.0986 13.9341 36.0962 16.018V16.0186C36.0958 16.3763 36.0954 16.7433 36.0954 17.1197V22.9135C36.0954 23.2899 36.0958 23.6569 36.0962 24.0146C36.0986 26.0988 36.1006 27.866 36.0172 29.333C35.6657 33.4151 32.9313 35.8174 28.9664 36.0713C27.8773 36.1411 26.2681 36.1299 24.6613 36.1187C24.0644 36.1145 23.4679 36.1104 22.8985 36.1104H17.1047C16.5353 36.1104 15.9388 36.1145 15.3419 36.1187C13.7351 36.1299 12.1259 36.1411 11.0368 36.0713C7.07192 35.8174 4.33754 33.4151 3.98598 29.333C3.90263 27.8662 3.90464 26.0991 3.90701 24.0152V24.0146C3.90742 23.6569 3.90784 23.2899 3.90784 22.9135V17.1197C3.90784 16.7433 3.90742 16.3763 3.90701 16.0186V16.018C3.90464 13.9341 3.90263 12.1671 3.98598 10.7002C4.33754 6.61819 7.07192 4.21584 11.0368 3.96194C12.1259 3.89219 13.7351 3.90339 15.3419 3.91457Z" fill="url(#paint0_linear_0_8)"/>
<g filter="url(#filter0_dddddd_0_8)">
<path d="M9.14062 15.3906C9.14062 14.5708 9.8052 13.9062 10.625 13.9062H21.0156C23.0867 13.9062 24.7656 15.5852 24.7656 17.6562V24.5703C24.7656 25.3901 24.101 26.0547 23.2813 26.0547H12.8906C10.8196 26.0547 9.14062 24.3758 9.14062 22.3047V15.3906Z" fill="url(#paint1_linear_0_8)"/>
<path d="M10.625 14.082H21.0156C22.9896 14.082 24.5898 15.6823 24.5898 17.6562V24.5703C24.5898 25.293 24.004 25.8789 23.2812 25.8789H12.8906C10.9166 25.8789 9.31641 24.2787 9.31641 22.3047V15.3906C9.31641 14.6679 9.90228 14.082 10.625 14.082Z" stroke="url(#paint2_linear_0_8)" stroke-width="0.351562"/>
</g>
<g filter="url(#filter1_dddddd_0_8)">
<path d="M25.7031 18.2073C25.7031 17.702 25.9205 17.2212 26.2999 16.8875L29.2769 14.2687C29.9077 13.7137 30.8984 14.1617 30.8984 15.0019V24.9888C30.8984 25.8212 29.9239 26.272 29.2896 25.733L26.5569 23.4113C26.0153 22.9511 25.7031 22.2763 25.7031 21.5656V18.2073Z" fill="url(#paint3_linear_0_8)"/>
<path d="M26.416 17.0195L29.393 14.4007C29.9103 13.9456 30.7227 14.3129 30.7227 15.0019V24.9888C30.7227 25.6713 29.9235 26.041 29.4034 25.5991L26.6707 23.2773C26.1684 22.8506 25.8789 22.2247 25.8789 21.5656V18.2073C25.8789 17.7526 26.0746 17.3198 26.416 17.0195Z" stroke="url(#paint4_linear_0_8)" stroke-width="0.351562"/>
</g>
<path d="M40.946 27V25.1974L47.3061 16.4787H40.9524V13.9091H51.3075V15.7116L44.9474 24.4304H51.3011V27H40.946ZM64.9833 20.4545C64.9833 21.8949 64.7063 23.1158 64.1523 24.1172C63.5984 25.1186 62.8484 25.8793 61.9023 26.3991C60.9606 26.919 59.9038 27.179 58.7319 27.179C57.5558 27.179 56.4968 26.9169 55.555 26.3928C54.6133 25.8686 53.8654 25.108 53.3114 24.1108C52.7617 23.1094 52.4869 21.8906 52.4869 20.4545C52.4869 19.0142 52.7617 17.7933 53.3114 16.7919C53.8654 15.7905 54.6133 15.0298 55.555 14.5099C56.4968 13.9901 57.5558 13.7301 58.7319 13.7301C59.9038 13.7301 60.9606 13.9901 61.9023 14.5099C62.8484 15.0298 63.5984 15.7905 64.1523 16.7919C64.7063 17.7933 64.9833 19.0142 64.9833 20.4545ZM61.7489 20.4545C61.7489 19.6023 61.6275 18.8821 61.3846 18.294C61.146 17.706 60.8008 17.2607 60.3491 16.9581C59.9016 16.6555 59.3626 16.5043 58.7319 16.5043C58.1055 16.5043 57.5664 16.6555 57.1147 16.9581C56.663 17.2607 56.3157 17.706 56.0728 18.294C55.8342 18.8821 55.7148 19.6023 55.7148 20.4545C55.7148 21.3068 55.8342 22.027 56.0728 22.6151C56.3157 23.2031 56.663 23.6484 57.1147 23.951C57.5664 24.2536 58.1055 24.4048 58.7319 24.4048C59.3626 24.4048 59.9016 24.2536 60.3491 23.951C60.8008 23.6484 61.146 23.2031 61.3846 22.6151C61.6275 22.027 61.7489 21.3068 61.7489 20.4545ZM79.1864 20.4545C79.1864 21.8949 78.9094 23.1158 78.3555 24.1172C77.8015 25.1186 77.0515 25.8793 76.1055 26.3991C75.1637 26.919 74.1069 27.179 72.935 27.179C71.7589 27.179 70.6999 26.9169 69.7582 26.3928C68.8164 25.8686 68.0685 25.108 67.5146 24.1108C66.9648 23.1094 66.69 21.8906 66.69 20.4545C66.69 19.0142 66.9648 17.7933 67.5146 16.7919C68.0685 15.7905 68.8164 15.0298 69.7582 14.5099C70.6999 13.9901 71.7589 13.7301 72.935 13.7301C74.1069 13.7301 75.1637 13.9901 76.1055 14.5099C77.0515 15.0298 77.8015 15.7905 78.3555 16.7919C78.9094 17.7933 79.1864 19.0142 79.1864 20.4545ZM75.9521 20.4545C75.9521 19.6023 75.8306 18.8821 75.5877 18.294C75.3491 17.706 75.0039 17.2607 74.5522 16.9581C74.1048 16.6555 73.5657 16.5043 72.935 16.5043C72.3086 16.5043 71.7695 16.6555 71.3178 16.9581C70.8661 17.2607 70.5188 17.706 70.2759 18.294C70.0373 18.8821 69.918 19.6023 69.918 20.4545C69.918 21.3068 70.0373 22.027 70.2759 22.6151C70.5188 23.2031 70.8661 23.6484 71.3178 23.951C71.7695 24.2536 72.3086 24.4048 72.935 24.4048C73.5657 24.4048 74.1048 24.2536 74.5522 23.951C75.0039 23.6484 75.3491 23.2031 75.5877 22.6151C75.8306 22.027 75.9521 21.3068 75.9521 20.4545ZM81.0337 13.9091H84.9521L88.2759 22.0142H88.4293L91.7532 13.9091H95.6715V27H92.5906V18.9588H92.4819L89.337 26.9169H87.3683L84.2234 18.9141H84.1147V27H81.0337V13.9091Z" fill="white"/>
<defs>
<filter id="filter0_dddddd_0_8" x="6.32812" y="12.8516" width="21.25" height="17.7734" filterUnits="userSpaceOnUse" color-interpolation-filters="sRGB">
<feFlood flood-opacity="0" result="BackgroundImageFix"/>
<feColorMatrix in="SourceAlpha" type="matrix" values="0 0 0 0 0 0 0 0 0 0 0 0 0 0 0 0 0 0 127 0" result="hardAlpha"/>
<feOffset dy="0.0964726"/>
<feGaussianBlur stdDeviation="0.0355378"/>
<feColorMatrix type="matrix" values="0 0 0 0 0.0509804 0 0 0 0 0.121569 0 0 0 0 0.396078 0 0 0 0.189957 0"/>
<feBlend mode="multiply" in2="BackgroundImageFix" result="effect1_dropShadow_0_8"/>
<feColorMatrix in="SourceAlpha" type="matrix" values="0 0 0 0 0 0 0 0 0 0 0 0 0 0 0 0 0 0 127 0" result="hardAlpha"/>
<feOffset dy="0.189277"/>
<feGaussianBlur stdDeviation="0.0790384"/>
<feColorMatrix type="matrix" values="0 0 0 0 0.0509804 0 0 0 0 0.121569 0 0 0 0 0.396078 0 0 0 0.368551 0"/>
<feBlend mode="multiply" in2="effect1_dropShadow_0_8" result="effect2_dropShadow_0_8"/>
<feColorMatrix in="SourceAlpha" type="matrix" values="0 0 0 0 0 0 0 0 0 0 0 0 0 0 0 0 0 0 127 0" result="hardAlpha"/>
<feOffset dy="0.29109"/>
<feGaussianBlur stdDeviation="0.135364"/>
<feColorMatrix type="matrix" values="0 0 0 0 0.0509804 0 0 0 0 0.121569 0 0 0 0 0.396078 0 0 0 0.3 0"/>
<feBlend mode="multiply" in2="effect2_dropShadow_0_8" result="effect3_dropShadow_0_8"/>
<feColorMatrix in="SourceAlpha" type="matrix" values="0 0 0 0 0 0 0 0 0 0 0 0 0 0 0 0 0 0 127 0" result="hardAlpha"/>
<feOffset dy="0.427121"/>
<feGaussianBlur stdDeviation="0.429883"/>
<feColorMatrix type="matrix" values="0 0 0 0 0.0509804 0 0 0 0 0.121569 0 0 0 0 0.396078 0 0 0 0.3 0"/>
<feBlend mode="multiply" in2="effect3_dropShadow_0_8" result="effect4_dropShadow_0_8"/>
<feColorMatrix in="SourceAlpha" type="matrix" values="0 0 0 0 0 0 0 0 0 0 0 0 0 0 0 0 0 0 127 0" result="hardAlpha"/>
<feOffset dy="0.664616"/>
<feGaussianBlur stdDeviation="0.799219"/>
<feColorMatrix type="matrix" values="0 0 0 0 0.0509804 0 0 0 0 0.121569 0 0 0 0 0.396078 0 0 0 0.29 0"/>
<feBlend mode="overlay" in2="effect4_dropShadow_0_8" result="effect5_dropShadow_0_8"/>
<feColorMatrix in="SourceAlpha" type="matrix" values="0 0 0 0 0 0 0 0 0 0 0 0 0 0 0 0 0 0 127 0" result="hardAlpha"/>
<feOffset dy="1.75781"/>
<feGaussianBlur stdDeviation="1.40625"/>
<feColorMatrix type="matrix" values="0 0 0 0 0.0509804 0 0 0 0 0.121569 0 0 0 0 0.396078 0 0 0 0.45 0"/>
<feBlend mode="multiply" in2="effect5_dropShadow_0_8" result="effect6_dropShadow_0_8"/>
<feBlend mode="normal" in="SourceGraphic" in2="effect6_dropShadow_0_8" result="shape"/>
</filter>
<filter id="filter1_dddddd_0_8" x="22.8906" y="12.9688" width="10.8203" height="17.5688" filterUnits="userSpaceOnUse" color-interpolation-filters="sRGB">
<feFlood flood-opacity="0" result="BackgroundImageFix"/>
<feColorMatrix in="SourceAlpha" type="matrix" values="0 0 0 0 0 0 0 0 0 0 0 0 0 0 0 0 0 0 127 0" result="hardAlpha"/>
<feOffset dy="0.0964726"/>
<feGaussianBlur stdDeviation="0.0355378"/>
<feColorMatrix type="matrix" values="0 0 0 0 0.0509804 0 0 0 0 0.121569 0 0 0 0 0.396078 0 0 0 0.189957 0"/>
<feBlend mode="multiply" in2="BackgroundImageFix" result="effect1_dropShadow_0_8"/>
<feColorMatrix in="SourceAlpha" type="matrix" values="0 0 0 0 0 0 0 0 0 0 0 0 0 0 0 0 0 0 127 0" result="hardAlpha"/>
<feOffset dy="0.189277"/>
<feGaussianBlur stdDeviation="0.0790384"/>
<feColorMatrix type="matrix" values="0 0 0 0 0.0509804 0 0 0 0 0.121569 0 0 0 0 0.396078 0 0 0 0.368551 0"/>
<feBlend mode="multiply" in2="effect1_dropShadow_0_8" result="effect2_dropShadow_0_8"/>
<feColorMatrix in="SourceAlpha" type="matrix" values="0 0 0 0 0 0 0 0 0 0 0 0 0 0 0 0 0 0 127 0" result="hardAlpha"/>
<feOffset dy="0.29109"/>
<feGaussianBlur stdDeviation="0.135364"/>
<feColorMatrix type="matrix" values="0 0 0 0 0.0509804 0 0 0 0 0.121569 0 0 0 0 0.396078 0 0 0 0.3 0"/>
<feBlend mode="multiply" in2="effect2_dropShadow_0_8" result="effect3_dropShadow_0_8"/>
<feColorMatrix in="SourceAlpha" type="matrix" values="0 0 0 0 0 0 0 0 0 0 0 0 0 0 0 0 0 0 127 0" result="hardAlpha"/>
<feOffset dy="0.427121"/>
<feGaussianBlur stdDeviation="0.429883"/>
<feColorMatrix type="matrix" values="0 0 0 0 0.0509804 0 0 0 0 0.121569 0 0 0 0 0.396078 0 0 0 0.3 0"/>
<feBlend mode="multiply" in2="effect3_dropShadow_0_8" result="effect4_dropShadow_0_8"/>
<feColorMatrix in="SourceAlpha" type="matrix" values="0 0 0 0 0 0 0 0 0 0 0 0 0 0 0 0 0 0 127 0" result="hardAlpha"/>
<feOffset dy="0.664616"/>
<feGaussianBlur stdDeviation="0.799219"/>
<feColorMatrix type="matrix" values="0 0 0 0 0.0509804 0 0 0 0 0.121569 0 0 0 0 0.396078 0 0 0 0.29 0"/>
<feBlend mode="overlay" in2="effect4_dropShadow_0_8" result="effect5_dropShadow_0_8"/>
<feColorMatrix in="SourceAlpha" type="matrix" values="0 0 0 0 0 0 0 0 0 0 0 0 0 0 0 0 0 0 127 0" result="hardAlpha"/>
<feOffset dy="1.75781"/>
<feGaussianBlur stdDeviation="1.40625"/>
<feColorMatrix type="matrix" values="0 0 0 0 0.0509804 0 0 0 0 0.121569 0 0 0 0 0.396078 0 0 0 0.45 0"/>
<feBlend mode="multiply" in2="effect5_dropShadow_0_8" result="effect6_dropShadow_0_8"/>
<feBlend mode="normal" in="SourceGraphic" in2="effect6_dropShadow_0_8" result="shape"/>
</filter>
<linearGradient id="paint0_linear_0_8" x1="20.0016" y1="3.90625" x2="20.0016" y2="36.127" gradientUnits="userSpaceOnUse">
<stop stop-color="#A4C1FF"/>
<stop offset="1" stop-color="#0E78F9"/>
</linearGradient>
<linearGradient id="paint1_linear_0_8" x1="16.9531" y1="13.9062" x2="16.9531" y2="26.0547" gradientUnits="userSpaceOnUse">
<stop stop-color="white"/>
<stop offset="1" stop-color="#C5D4F7"/>
</linearGradient>
<linearGradient id="paint2_linear_0_8" x1="16.9531" y1="13.9062" x2="16.9531" y2="26.0547" gradientUnits="userSpaceOnUse">
<stop stop-color="white"/>
<stop offset="1" stop-color="#637ACA"/>
</linearGradient>
<linearGradient id="paint3_linear_0_8" x1="28.3008" y1="14.0234" x2="28.3008" y2="25.9673" gradientUnits="userSpaceOnUse">
<stop stop-color="white"/>
<stop offset="1" stop-color="#C5D4F7"/>
</linearGradient>
<linearGradient id="paint4_linear_0_8" x1="28.3008" y1="14.0234" x2="28.3008" y2="25.9673" gradientUnits="userSpaceOnUse">
<stop stop-color="white"/>
<stop offset="1" stop-color="#637ACA"/>
</linearGradient>
</defs>
</svg>
